   <?xml version="1.0" encoding="UTF-8" standalone="no"?>
<svg
   width="1000"
   height="1000"
   viewBox="0 0 1000 1000"
   version="1.1"
   id="svg2"
   sodipodi:docname="hoholuft.svg"
   inkscape:version="1.4 (e7c3feb1, 2024-10-09)"
   inkscape:export-filename="hoholuft.png"
   inkscape:export-xdpi="96"
   inkscape:export-ydpi="96"
   xmlns:inkscape="http://www.inkscape.org/namespaces/inkscape"
   xmlns:sodipodi="http://sodipodi.sourceforge.net/DTD/sodipodi-0.dtd"
   xmlns="http://www.w3.org/2000/svg"
   xmlns:svg="http://www.w3.org/2000/svg">
  <sodipodi:namedview
     id="namedview1"
     pagecolor="#ffffff"
     bordercolor="#000000"
     borderopacity="0.25"
     inkscape:showpageshadow="2"
     inkscape:pageopacity="0.0"
     inkscape:pagecheckerboard="0"
     inkscape:deskcolor="#d1d1d1"
     showgrid="false"
     inkscape:zoom="0.407"
     inkscape:cx="433.66093"
     inkscape:cy="544.22604"
     inkscape:window-width="1280"
     inkscape:window-height="800"
     inkscape:window-x="0"
     inkscape:window-y="0"
     inkscape:window-maximized="0"
     inkscape:current-layer="svg2" />
  <!-- ===== DEFINITIONS ===== -->
  <defs
     id="defs1">
    <!-- Oberer Textpfad -->
    <path
       id="textpath-top"
       d="M 80,500        A 410,410 0 0 1 920,500" />
    <!-- Unterer Textpfad -->
    <path
       id="textpath-bottom"
       d="M 80,500        A 410,410 0 0 0 920,500" />
  </defs>
  <!-- ===== OUTER CIRCLE ===== -->
  <g
     id="circle_outer">
    <circle
       cx="500"
       cy="500"
       r="450"
       fill="none"
       stroke="#000000"
       stroke-width="24"
       id="circle1" />
  </g>
  <!-- ===== TYPOGRAPHY ===== -->
  <g
     id="typography"
     fill="#000000"
     font-family="Source Sans 3"
     font-size="72"
     letter-spacing="6"
     text-anchor="middle">
    <text
       id="text1"
       inkscape:label="text1"
       transform="translate(0,68)"
       style="font-style:normal;font-variant:normal;font-weight:normal;font-stretch:normal;font-size:85.3333px;font-family:'Source Sans 3';-inkscape-font-specification:'Source Sans 3, @wght=600';font-variant-ligatures:normal;font-variant-caps:normal;font-variant-numeric:normal;font-variant-east-asian:normal;font-variation-settings:'wght' 600"><textPath
         href="#textpath-top"
         startOffset="50%"
         id="textPath1">ISLANDPFERDE</textPath></text>
    <text
       id="text2"
       style="-inkscape-font-specification:'Source Sans 3, @wght=600';font-family:'Source Sans 3';font-weight:normal;font-style:normal;font-stretch:normal;font-variant:normal;font-variation-settings:'wght' 600;font-size:85.3333px;font-variant-ligatures:normal;font-variant-caps:normal;font-variant-numeric:normal;font-variant-east-asian:normal"><textPath
         href="#textpath-bottom"
         startOffset="50%"
         id="textPath2">
      VON HOHELUFT
    </textPath></text>
  </g>
  <!-- ===== CENTRAL MOTIF ===== -->
  <g
     id="central_motif"
     fill="#000000"
     transform="translate(210.56511,202.44717)">
    <!-- HORSE SILHOUETTE (MASTER PATH) -->
    <!-- !!! DIESEN PFAD DURCH DIE FINALE SILHOUETTE ERSETZEN !!! -->
    <path
       id="Pony"
       d="m 357,83 c 5.45,1.1 8.2,2.21 14,1.96 11.52,-0.5 22.64,-10.49 34,-14.21 18.08,-5.92 40.44,-2.02 55,10.25 0,0 1,-11 1,-11 8.2,3.91 9.67,10.02 12,18 0,0 10,-4 10,-4 0,0 -3.27,12 -3.27,12 0,0 4.27,18 4.27,18 0,0 -4,-1 -4,-1 0,0 15.25,35 15.25,35 2.34,4.72 7.86,15.02 7.41,20 -0.93,10.17 -10.58,17.77 -20.64,13.97 -6.74,-2.54 -4.15,-6.84 -12.04,-13.51 C 454.36,155.25 453.05,164.43 439,149 c 0,0 -3.57,11 -3.57,11 -3.23,11.27 -5.56,24.27 -5.43,36 0,0 2.96,30 2.96,30 -0.34,8.07 -3.24,14.45 -4.96,22 0,0 12,3.57 12,3.57 0,0 17,4.31 17,4.31 4.43,1.17 10.14,2.54 13.03,6.33 6.94,9.11 4.23,18.59 3.13,28.79 -0.59,5.55 -1.31,20.96 -2.87,25 -1.85,4.79 -7.47,9.12 -11.29,12.42 -8.68,7.51 -13.6,14.45 -26,15.58 -1.29,-7.19 -1.9,-15.3 1.83,-21.94 4.14,-7.36 10.89,-0.04 15.31,-5.2 2.05,-2.39 -0.56,-5.05 0.96,-8.86 0,0 4.33,-7 4.33,-7 2.2,-4.62 3.88,-17.4 1.4,-21.94 -1.37,-2.5 -3.19,-3.47 -5.83,-4.2 -2.93,-0.81 -5.99,-0.85 -9,-0.86 0,0 -14,0 -14,0 0,0 -23,1 -23,1 -6.58,-0.09 -7.32,-1.02 -13,-4 -1.96,8.81 -10.21,20.74 -14.69,29 -3.57,6.57 -7.11,13.03 -9.86,20 0,0 -4.32,13 -4.32,13 -4.16,9.87 -7.99,13.29 -8.13,25 -0.12,11.19 1.08,14.03 10,21.41 2.08,1.71 4.23,3.69 7,4.11 0,0 27,-3.77 27,-3.77 22.25,-3.71 44.34,-9.79 67,-9.75 9.2,0.01 16.37,1.6 25,4.69 2.71,0.97 7.36,2.35 8.22,5.44 0.84,3.01 -2.93,9.88 -4.22,12.87 -4.73,10.96 -9.3,21.72 -15.4,32 -8.29,13.99 -21.99,35.61 -25.7,51 -2.6,10.76 -1.9,22.02 -1.9,33 9.33,0 14.58,-0.32 24,1.46 15.37,2.9 28.93,8.51 45,8.54 15.14,0.02 14.86,0.24 30,-1.87 4.71,-0.66 11.6,-2.74 16,-1.13 -15.01,7.7 -35.13,11.92 -52,12 -24.68,0.12 -36.26,-5.93 -51,-6 0,0 -9,0 -9,0 -14.43,0.17 -28.36,7.42 -43,6.49 0,0 -39,-5.49 -39,-5.49 -16.7,-0.19 -26.77,4.55 -43,6.17 -3.53,0.35 -5.17,0.95 -9,0.74 -12.65,-0.72 -25.67,-2.87 -38,-5.79 -9.6,-2.28 -29.62,-6.63 -39,-6.03 -9.4,0.6 -18.79,2.16 -28,4.12 0,0 -16,3.52 -16,3.52 -18.71,2.88 -36.38,2.93 -55,-0.73 -8.81,-1.73 -22.22,-4.01 -29,-10 0,0 25,2.92 25,2.92 0,0 22,0 22,0 23.26,-0.03 52.31,-14.58 81,-14.92 12.07,-0.14 22.18,0.82 34,3.42 13.3,2.94 27.33,7.56 41,7.58 0,0 8,0 8,0 0,0 41,-5 41,-5 0,0 41,6.91 41,6.91 8.52,0.54 23.83,-3.67 33,-4.91 -2.96,-15.71 -4.95,-32.22 -1.1,-48 3.9,-16 14.87,-37.04 22.35,-52 3.07,-6.15 9.01,-16.9 10.75,-23 -5.81,0 -14.67,-0.54 -20,1.04 -9.06,2.69 -10.02,6.96 -24,9.5 0,0 -13,1.88 -13,1.88 0,0 -28,5.31 -28,5.31 -13.65,2.1 -29.2,4.24 -42,9.33 -15.93,6.34 -23.79,19.26 -42,22.68 0,0 -39,3.35 -39,3.35 -11.06,0.75 -22.15,2.67 -33,4.91 -21.64,4.48 -52.23,15.75 -73,16 -27.7,0.32 -37.37,-7.6 -62,-12.55 -22.47,-4.52 -45.2,-3.56 -68,-3.45 -6.6,0.03 -16.04,2.36 -22,0 19.28,-10.68 45.56,-19.51 67,-24.87 9.3,-2.33 26.83,-6.38 36,-7.13 -2.47,-6.22 -7.29,-19.62 -3.98,-25.96 1.85,-3.54 6.06,-5.2 7.53,-9.05 0.96,-3.46 -1.51,-7.49 0,-11.99 1.53,-3.56 5.48,-6.76 7.82,-10 3.45,-4.77 8.23,-14.41 10.43,-20 2.56,-6.53 4.36,-14.09 5.59,-21 0.59,-3.33 0.52,-8.07 2.46,-10.78 0,0 15.15,-10.68 15.15,-10.68 11.12,-9.16 14.83,-18.34 15,-32.54 0.24,-20.77 -1.06,-28.73 7,-49 -6.99,2.62 -13.59,3.89 -18.61,10.04 -5.08,6.23 -6.97,19.17 -9.13,26.96 -3.98,14.32 -12.69,30.01 -26.26,37 0,0 3,-14 3,-14 -5.27,4.92 -6.51,10.09 -13.04,15.04 -14.41,11.03 -47.94,14.73 -60.96,0 10.54,-0.9 20.72,-3.95 28,-12.04 -3.96,0.52 -6.92,1.18 -11,0.91 -10.21,-0.66 -23.11,-6.29 -26,-16.91 4.61,1.83 8.98,3.57 14,3.91 15.97,1.09 28.76,-11.19 37.77,-22.91 6.89,-8.97 14.31,-21.2 22.27,-28.91 9.57,-9.28 22.86,-14.95 35.96,-16.81 6.58,-0.93 13.35,-1.75 20,-1.11 3.15,0.3 11.41,1.84 14,1.18 0,0 16,-10.04 16,-10.04 10.85,-5.96 22.65,-9.38 35,-10.22 10.36,-0.71 25.54,2.96 36,4.48 18.6,2.7 37.67,1.26 53,-10.57 -12.78,0 -32.8,-1.79 -40,-14 0,0 1,-1 1,-1 13.91,4.02 33.2,1.55 43,-10 -10.34,2.84 -28.77,-4.73 -34,-14 0,0 11,0 11,0 11.55,-0.06 32.28,-5.84 42,-12 -12.21,-0.27 -31.08,-5.25 -34,-19 6.29,2.67 12.99,5.35 20,4.82 9.26,-0.71 25.82,-7.29 34,-11.82 -5.99,-1.71 -10,-4.2 -14,-9 z M 253,250 c 0,0 -2,0 -2,0 -6.71,13.69 -28.03,33.2 -41,41.07 0,0 -13,6.79 -13,6.79 -8.22,4.59 -28.36,17.45 -35,23.32 -12.79,11.32 -21.15,34.84 -27.09,50.82 0,0 -4.82,10 -4.82,10 0,0 -8.09,30 -8.09,30 0,0 23,-2.72 23,-2.72 0,0 21,-2.11 21,-2.11 0,0 88,-10.3 88,-10.3 0,0 52,-6.87 52,-6.87 -3.27,-4.61 -11.39,-7.54 -15.52,-12.87 -3.39,-4.36 0.59,-7.45 -1.51,-10.4 -1.2,-1.68 -3.47,-1.35 -6.55,-4.04 0,0 -5.43,-5.39 -5.43,-5.39 0,0 -12.99,-9.63 -12.99,-9.63 0,0 -22,-12.89 -22,-12.89 -3.16,-1.67 -8.13,-3.58 -9.79,-6.88 -2.36,-4.73 2.55,-9.71 2.78,-18.9 0.13,-5.64 -0.38,-9.7 -2.45,-15 -1.13,-2.88 -3.84,-6.95 -2.98,-10 0.68,-2.4 7.46,-9.52 9.52,-12 6.36,-7.65 9.97,-12.84 13.92,-22 z m 101,29 c -7,0.92 -11.77,1.99 -19,2 -31.1,0.05 -32.61,-0.28 -63,-6 0,0 -4.74,16 -4.74,16 0,0 -5.68,17 -5.68,17 -1.21,4.3 -2.68,10.79 -0.56,15 2.7,5.32 16.61,13.96 21.98,17.72 4.44,3.1 12.4,8.5 15.79,12.32 3.1,3.49 4.31,7.11 6.75,10.96 2.59,4.08 6.04,8.15 7.07,13 0.82,3.85 -0.29,8.1 -0.61,12 0,0 35,-3 35,-3 -0.43,-2.57 -0.6,-4.99 -3.25,-6.26 -2.82,-1.35 -9.54,0.29 -9.97,-5.76 -0.2,-2.71 2.19,-8.29 3.17,-10.98 0,0 5.15,-17 5.15,-17 0,0 3.32,-24 3.32,-24 3.28,-14.66 8.24,-27.51 8.58,-43 z m 50,214 c -5.77,-3.37 -6.97,-11.75 -6.97,-18 0,-14.22 8.41,-36.83 21.97,-43 0,0 -10,30 -10,30 -4.53,13.58 -7.68,16.03 -5,31 z" />
  </g>
</svg>
